<svg xmlns="http://www.w3.org/2000/svg" viewBox="0 0 32 32">
  <g stroke="#d98c5f" stroke-width="2.6" stroke-linecap="round">
    <line x1="14" y1="2.5" x2="14" y2="6"/>
    <line x1="14" y1="22" x2="14" y2="25.5"/>
    <line x1="2.5" y1="14" x2="6" y2="14"/>
    <line x1="22" y1="14" x2="25.5" y2="14"/>
    <line x1="6.2" y1="6.2" x2="8.7" y2="8.7"/>
    <line x1="19.3" y1="19.3" x2="21.8" y2="21.8"/>
    <line x1="6.2" y1="21.8" x2="8.7" y2="19.3"/>
    <line x1="19.3" y1="8.7" x2="21.8" y2="6.2"/>
  </g>
  <circle cx="14" cy="14" r="6.5" fill="#d98c5f"/>
  <path fill="#5b6472" d="M27 18 C27.4 20.4 27.6 20.6 30 21 C27.6 21.4 27.4 21.6 27 24 C26.6 21.6 26.4 21.4 24 21 C26.4 20.6 26.6 20.4 27 18 Z"/>
  <path fill="#5b6472" d="M25.5 6 C25.75 7.4 25.85 7.5 27.2 7.75 C25.85 8 25.75 8.1 25.5 9.5 C25.25 8.1 25.15 8 23.8 7.75 C25.15 7.5 25.25 7.4 25.5 6 Z"/>
</svg>
